<svg xmlns="http://www.w3.org/2000/svg" xmlns:xlink="http://www.w3.org/1999/xlink" width="200" zoomAndPan="magnify" viewBox="0 0 150 149.999998" height="200" preserveAspectRatio="xMidYMid meet" version="1.0"><defs><g/></defs><g fill="#2563eb" fill-opacity="1"><g transform="translate(15.896485, 127.499995)"><g><path d="M 84.296875 18 L 70.796875 -0.15625 C 66.796875 0.644531 62.894531 1.046875 59.09375 1.046875 C 49.195312 1.046875 40.125 -1.25 31.875 -5.84375 C 23.625 -10.445312 17.070312 -16.875 12.21875 -25.125 C 7.375 -33.375 4.953125 -42.648438 4.953125 -52.953125 C 4.953125 -63.253906 7.375 -72.503906 12.21875 -80.703125 C 17.070312 -88.898438 23.625 -95.296875 31.875 -99.890625 C 40.125 -104.492188 49.195312 -106.796875 59.09375 -106.796875 C 69 -106.796875 78.078125 -104.492188 86.328125 -99.890625 C 94.578125 -95.296875 101.078125 -88.898438 105.828125 -80.703125 C 110.578125 -72.503906 112.953125 -63.253906 112.953125 -52.953125 C 112.953125 -43.953125 111.125 -35.722656 107.46875 -28.265625 C 103.820312 -20.816406 98.75 -14.644531 92.25 -9.75 L 115.34375 18 Z M 31.203125 -52.953125 C 31.203125 -43.648438 33.722656 -36.222656 38.765625 -30.671875 C 43.816406 -25.117188 50.59375 -22.34375 59.09375 -22.34375 C 67.5 -22.34375 74.222656 -25.144531 79.265625 -30.75 C 84.316406 -36.351562 86.84375 -43.753906 86.84375 -52.953125 C 86.84375 -62.253906 84.316406 -69.675781 79.265625 -75.21875 C 74.222656 -80.769531 67.5 -83.546875 59.09375 -83.546875 C 50.59375 -83.546875 43.816406 -80.796875 38.765625 -75.296875 C 33.722656 -69.796875 31.203125 -62.347656 31.203125 -52.953125 Z M 31.203125 -52.953125 "/></g></g></g></svg>